<?xml version="1.0" standalone="no"?>
<!DOCTYPE svg PUBLIC "-//W3C//DTD SVG 20010904//EN"
 "http://www.w3.org/TR/2001/REC-SVG-20010904/DTD/svg10.dtd">
<svg version="1.0" xmlns="http://www.w3.org/2000/svg"
 width="512.000000pt" height="512.000000pt" viewBox="0 0 512.000000 512.000000"
 preserveAspectRatio="xMidYMid meet">
<metadata>
Created by potrace 1.11, written by Peter Selinger 2001-2013
</metadata>
<g transform="translate(0.000000,512.000000) scale(0.100000,-0.100000)"
fill="#000000" stroke="none">
<path d="M2398 5115 c-2 -1 -41 -6 -88 -10 -46 -3 -87 -8 -90 -10 -3 -1 -27
-5 -55 -9 -275 -32 -664 -176 -935 -344 -269 -168 -476 -353 -692 -620 -250
-309 -452 -780 -508 -1185 -6 -39 -13 -88 -16 -107 -10 -61 -12 -421 -3 -505
48 -456 199 -865 452 -1226 309 -442 752 -778 1262 -959 83 -29 280 -82 350
-94 17 -3 41 -8 55 -10 14 -3 48 -8 75 -11 28 -4 61 -9 75 -11 14 -3 124 -6
245 -8 197 -4 386 8 453 28 9 3 37 8 62 11 24 4 47 8 51 10 3 2 21 7 40 10 82
14 343 98 439 141 326 149 559 310 800 553 203 204 336 384 461 626 84 160
182 412 203 519 3 11 14 59 25 106 11 47 22 101 25 120 6 34 8 49 25 195 13
106 5 475 -12 585 -13 80 -25 141 -52 264 -3 10 -12 44 -21 75 -9 31 -17 63
-19 71 -10 47 -87 235 -150 365 -293 599 -815 1063 -1450 1288 -196 69 -335
101 -580 132 -49 7 -421 15 -427 10z m312 -259 c63 -4 156 -13 205 -22 50 -8
99 -17 111 -19 91 -15 323 -88 434 -137 416 -182 773 -479 1018 -847 175 -263
311 -603 353 -884 6 -40 12 -83 15 -97 21 -123 21 -441 0 -590 -63 -439 -253
-867 -529 -1189 -78 -91 -272 -274 -362 -342 -93 -69 -210 -149 -218 -149 -2
0 -43 -22 -91 -50 -48 -27 -89 -50 -91 -50 -3 0 -35 -14 -72 -31 -143 -66
-412 -145 -558 -165 -27 -3 -59 -8 -70 -10 -86 -17 -363 -22 -495 -10 -410 37
-802 183 -1136 423 -253 181 -486 435 -646 703 -133 224 -245 522 -282 750 -3
19 -8 44 -10 55 -4 21 -13 95 -21 170 -7 63 -7 302 0 385 36 443 222 907 499
1245 76 92 91 109 181 198 278 276 623 479 990 582 153 43 347 75 499 81 77 4
143 8 145 10 2 2 7 2 10 0 3 -2 58 -7 121 -10z"/>
<path d="M3599 3680 c-44 -12 -68 -30 -83 -59 -39 -74 -25 -111 79 -214 66
-66 74 -77 54 -77 -176 -2 -404 -10 -439 -15 -249 -37 -496 -154 -661 -315
-39 -37 -71 -77 -75 -94 -8 -35 11 -94 40 -120 58 -51 118 -44 196 23 122 105
234 169 375 214 114 36 211 47 412 47 l176 0 -87 -90 c-84 -88 -91 -100 -86
-160 7 -92 125 -136 203 -76 69 54 384 383 396 413 28 69 16 86 -205 307 -113
113 -206 206 -207 206 -1 0 -16 4 -32 8 -17 5 -42 6 -56 2z"/>
<path d="M1109 3296 c-30 -17 -59 -71 -59 -109 0 -83 48 -123 160 -131 174
-14 240 -30 375 -88 141 -61 195 -107 580 -488 422 -418 435 -431 530 -494 68
-46 220 -124 254 -131 9 -2 29 -8 46 -15 45 -17 182 -47 253 -55 34 -4 143 -7
242 -7 l181 0 -85 -88 c-58 -60 -86 -97 -88 -116 -12 -99 74 -175 164 -145 50
17 433 405 443 448 13 65 2 81 -214 297 -209 209 -209 209 -259 214 -46 4 -53
2 -86 -29 -38 -35 -55 -81 -48 -128 2 -13 40 -61 86 -108 46 -46 80 -85 77
-87 -11 -5 -376 2 -411 8 -156 29 -234 55 -340 113 -119 67 -173 114 -560 498
-413 409 -487 470 -660 545 -68 30 -211 82 -218 79 -1 0 -16 3 -33 6 -56 12
-83 15 -194 20 -86 5 -116 2 -136 -9z"/>
<path d="M1905 2360 c-11 -4 -47 -32 -80 -61 -154 -136 -357 -226 -547 -244
-35 -3 -85 -8 -113 -11 -81 -7 -125 -52 -125 -127 0 -50 26 -93 68 -113 49
-23 215 -11 357 26 176 46 306 108 440 209 169 128 201 189 143 274 -11 15
-28 32 -39 38 -26 14 -79 18 -104 9z"/>
</g>
</svg>
